<?xml version="1.0" standalone="no"?>
<!DOCTYPE svg PUBLIC "-//W3C//DTD SVG 20010904//EN"
 "http://www.w3.org/TR/2001/REC-SVG-20010904/DTD/svg10.dtd">
<svg version="1.0" xmlns="http://www.w3.org/2000/svg"
 width="200.000000pt" height="200.000000pt" viewBox="0 0 200.000000 200.000000"
 preserveAspectRatio="xMidYMid meet">

<g transform="translate(0.000000,200.000000) scale(0.100000,-0.100000)"
fill="#000000" stroke="none">
<path d="M928 1943 c6 -2 18 -2 25 0 6 3 1 5 -13 5 -14 0 -19 -2 -12 -5z"/>
<path d="M1048 1943 c6 -2 18 -2 25 0 6 3 1 5 -13 5 -14 0 -19 -2 -12 -5z"/>
<path d="M1178 1923 c7 -3 16 -2 19 1 4 3 -2 6 -13 5 -11 0 -14 -3 -6 -6z"/>
<path d="M978 1913 c12 -2 30 -2 40 0 9 3 -1 5 -23 4 -22 0 -30 -2 -17 -4z"/>
<path d="M888 1903 c6 -2 18 -2 25 0 6 3 1 5 -13 5 -14 0 -19 -2 -12 -5z"/>
<path d="M1093 1903 c9 -2 23 -2 30 0 6 3 -1 5 -18 5 -16 0 -22 -2 -12 -5z"/>
<path d="M828 1893 c7 -3 16 -2 19 1 4 3 -2 6 -13 5 -11 0 -14 -3 -6 -6z"/>
<path d="M1158 1893 c7 -3 16 -2 19 1 4 3 -2 6 -13 5 -11 0 -14 -3 -6 -6z"/>
<path d="M1198 1883 c7 -3 16 -2 19 1 4 3 -2 6 -13 5 -11 0 -14 -3 -6 -6z"/>
<path d="M1270 1860 c8 -5 20 -10 25 -10 6 0 3 5 -5 10 -8 5 -19 10 -25 10 -5
0 -3 -5 5 -10z"/>
<path d="M567 1836 c-21 -13 -43 -29 -50 -35 -10 -11 90 43 102 55 12 11 -19
-1 -52 -20z"/>
<path d="M648 1834 c-27 -13 -48 -27 -48 -29 0 -5 99 42 109 51 13 11 -20 0
-61 -22z"/>
<path d="M1381 1856 c13 -14 121 -76 110 -63 -6 8 -34 26 -63 42 -29 15 -50
25 -47 21z"/>
<path d="M1331 1836 c2 -2 15 -9 29 -15 24 -11 24 -11 6 3 -16 13 -49 24 -35
12z"/>
<path d="M524 1757 c-109 -81 -200 -190 -263 -314 -46 -93 -37 -91 12 2 71
137 169 250 275 320 38 25 49 35 38 35 -2 0 -30 -20 -62 -43z"/>
<path d="M426 1729 c-62 -57 -136 -151 -166 -209 -19 -38 -7 -23 49 62 29 43
84 107 124 143 39 36 69 65 66 65 -4 0 -36 -28 -73 -61z"/>
<path d="M1566 1724 c77 -73 122 -131 168 -214 20 -36 36 -61 36 -56 0 5 -14
34 -31 65 -54 96 -124 180 -194 233 -26 20 -18 10 21 -28z"/>
<path d="M1528 1706 c77 -71 139 -151 192 -247 22 -41 40 -70 40 -65 0 15 -69
137 -103 181 -44 58 -106 122 -152 157 -22 17 -12 5 23 -26z"/>
<path d="M1321 1540 c66 -76 121 -151 115 -157 -2 -3 -22 13 -44 34 -54 53
-126 89 -191 98 l-54 7 80 -83 c44 -46 111 -120 150 -164 38 -44 88 -93 111
-109 23 -16 42 -31 42 -35 0 -3 -20 -7 -44 -8 -60 -3 -142 -33 -237 -88 -44
-26 -106 -60 -137 -77 -31 -17 -73 -39 -92 -49 l-35 -20 80 6 c152 10 329 46
398 81 50 26 28 -2 -85 -112 -150 -145 -317 -253 -366 -238 -14 5 -15 4 -2 -5
20 -14 -32 -36 -170 -72 -67 -17 -105 -32 -105 -41 0 -40 346 66 435 134 14
10 59 44 100 74 41 31 114 95 162 142 50 49 85 77 83 66 -3 -10 -11 -61 -20
-112 -16 -99 -49 -181 -93 -234 l-27 -33 30 22 c17 12 53 45 81 75 137 144
196 274 162 358 -13 32 -12 38 9 75 59 103 3 292 -128 435 -26 29 -34 34 -21
15 39 -60 72 -136 83 -187 5 -29 12 -63 15 -75 7 -34 -12 -28 -24 7 -32 91
-181 251 -302 325 -8 5 10 -20 41 -55z m195 -225 c57 -47 86 -96 82 -137 -6
-59 -30 -39 -84 70 -27 56 -48 102 -46 102 3 0 24 -16 48 -35z"/>
<path d="M222 1445 c-17 -37 -14 -45 4 -12 9 16 14 31 11 33 -2 2 -9 -7 -15
-21z"/>
<path d="M1782 1415 c0 -5 6 -26 13 -45 7 -19 14 -28 14 -20 0 8 -6 29 -14 45
-7 17 -13 26 -13 20z"/>
<path d="M1762 1375 c0 -5 6 -26 13 -45 7 -19 14 -28 14 -20 0 8 -6 29 -14 45
-7 17 -13 26 -13 20z"/>
<path d="M1036 1302 c-2 -4 4 -8 14 -8 10 0 16 4 14 8 -3 4 -9 8 -14 8 -5 0
-11 -4 -14 -8z"/>
<path d="M171 1284 c0 -11 3 -14 6 -6 3 7 2 16 -1 19 -3 4 -6 -2 -5 -13z"/>
<path d="M201 1284 c0 -11 3 -14 6 -6 3 7 2 16 -1 19 -3 4 -6 -2 -5 -13z"/>
<path d="M1821 1274 c0 -11 3 -14 6 -6 3 7 2 16 -1 19 -3 4 -6 -2 -5 -13z"/>
<path d="M191 1244 c0 -11 3 -14 6 -6 3 7 2 16 -1 19 -3 4 -6 -2 -5 -13z"/>
<path d="M1801 1244 c0 -11 3 -14 6 -6 3 7 2 16 -1 19 -3 4 -6 -2 -5 -13z"/>
<path d="M1021 1229 c-2 -51 -44 -186 -81 -267 -37 -79 -70 -133 -128 -211
-15 -20 -19 -30 -9 -22 28 22 105 144 147 233 43 92 84 236 77 271 -4 20 -4
20 -6 -4z"/>
<path d="M161 1224 c0 -11 3 -14 6 -6 3 7 2 16 -1 19 -3 4 -6 -2 -5 -13z"/>
<path d="M1051 1224 c0 -11 3 -14 6 -6 3 7 2 16 -1 19 -3 4 -6 -2 -5 -13z"/>
<path d="M1832 1205 c0 -16 2 -22 5 -12 2 9 2 23 0 30 -3 6 -5 -1 -5 -18z"/>
<path d="M182 1195 c0 -16 2 -22 5 -12 2 9 2 23 0 30 -3 6 -5 -1 -5 -18z"/>
<path d="M1812 1180 c0 -19 2 -27 5 -17 2 9 2 25 0 35 -3 9 -5 1 -5 -18z"/>
<path d="M152 1170 c0 -14 2 -19 5 -12 2 6 2 18 0 25 -3 6 -5 1 -5 -13z"/>
<path d="M1011 1067 c-29 -89 -98 -229 -143 -288 -44 -58 -54 -74 -40 -65 22
13 120 172 150 241 35 83 66 175 60 180 -2 3 -15 -28 -27 -68z"/>
<path d="M173 1055 c0 -27 2 -38 4 -22 2 15 2 37 0 50 -2 12 -4 0 -4 -28z"/>
<path d="M151 1034 c0 -11 3 -14 6 -6 3 7 2 16 -1 19 -3 4 -6 -2 -5 -13z"/>
<path d="M1832 995 c0 -16 2 -22 5 -12 2 9 2 23 0 30 -3 6 -5 -1 -5 -18z"/>
<path d="M160 965 c0 -8 2 -15 4 -15 2 0 6 7 10 15 3 8 1 15 -4 15 -6 0 -10
-7 -10 -15z"/>
<path d="M467 949 c7 -7 15 -10 18 -7 3 3 -2 9 -12 12 -14 6 -15 5 -6 -5z"/>
<path d="M1810 938 c0 -16 5 -28 10 -28 13 0 13 20 0 40 -8 12 -10 9 -10 -12z"/>
<path d="M176 932 c-4 -7 0 -38 9 -70 18 -62 66 -175 72 -169 2 2 -8 29 -21
60 -14 30 -31 86 -39 123 -8 39 -17 63 -21 56z"/>
<path d="M576 864 c45 -45 107 -93 142 -112 82 -44 79 -35 -5 14 -36 22 -100
70 -142 108 l-76 68 81 -78z"/>
<path d="M561 838 c36 -34 85 -73 108 -86 54 -31 53 -21 -1 11 -24 14 -72 51
-108 82 l-65 57 66 -64z"/>
<path d="M1801 888 c4 -21 -21 -99 -56 -175 -19 -40 -32 -73 -30 -73 9 0 58
107 81 174 27 78 28 86 14 86 -6 0 -10 -6 -9 -12z"/>
<path d="M691 631 c-42 -39 -60 -61 -52 -66 15 -9 75 32 122 83 l34 37 -40
-36 c-103 -92 -146 -108 -53 -19 81 76 73 77 -11 1z"/>
<path d="M870 679 c12 -8 8 -9 -15 -5 l-30 5 30 -14 c17 -8 37 -14 45 -14 10
0 8 3 -5 9 l-20 9 20 1 20 1 -20 9 c-28 12 -43 12 -25 -1z"/>
<path d="M275 650 c9 -16 18 -30 21 -30 2 0 -2 14 -11 30 -9 17 -18 30 -21 30
-2 0 2 -13 11 -30z"/>
<path d="M935 660 c19 -8 19 -9 1 -9 -11 -1 -17 -3 -14 -6 3 -4 18 -3 34 1 25
6 26 8 9 15 -28 11 -55 10 -30 -1z"/>
<path d="M975 640 c-25 -11 1 -11 35 0 20 6 21 8 5 8 -11 0 -29 -3 -40 -8z"/>
<path d="M1314 632 c3 -6 -2 -13 -11 -15 -14 -4 -13 -5 5 -6 23 -1 30 13 10
25 -6 4 -8 3 -4 -4z"/>
<path d="M1188 623 c12 -2 32 -2 45 0 12 2 2 4 -23 4 -25 0 -35 -2 -22 -4z"/>
<path d="M1193 603 c15 -2 37 -2 50 0 12 2 0 4 -28 4 -27 0 -38 -2 -22 -4z"/>
<path d="M1684 599 c-3 -6 -2 -15 3 -20 5 -5 9 -1 10 11 2 22 -2 25 -13 9z"/>
<path d="M277 559 c-21 -17 -35 -35 -32 -40 4 -5 1 -10 -4 -10 -22 -3 -26 -5
-53 -23 -15 -10 -25 -23 -21 -29 4 -6 11 -4 18 6 7 9 14 14 17 12 3 -3 11 1
18 10 18 22 24 19 55 -20 20 -27 24 -39 16 -49 -6 -7 -8 -16 -4 -19 3 -4 1 -8
-5 -8 -7 -1 -17 -2 -24 -3 -13 -1 -24 -26 -11 -26 5 0 26 14 47 32 31 26 36
33 24 42 -7 6 -24 26 -37 45 l-24 33 38 33 c21 17 34 34 28 38 -5 3 -26 -8
-46 -24z m13 -2 c0 -2 -10 -12 -22 -23 l-23 -19 19 23 c18 21 26 27 26 19z
m30 -131 c0 -2 -8 -10 -17 -17 -16 -13 -17 -12 -4 4 13 16 21 21 21 13z"/>
<path d="M1717 573 c-11 -11 14 -32 30 -26 10 4 14 2 10 -4 -4 -6 2 -18 12
-28 18 -16 19 -16 17 1 -3 20 -59 67 -69 57z"/>
<path d="M592 548 c5 -15 28 -23 28 -10 0 5 -7 13 -16 16 -10 4 -14 1 -12 -6z"/>
<path d="M1806 489 c4 -36 -9 -64 -35 -79 -15 -7 -28 -3 -59 20 -23 16 -44 26
-46 21 -5 -8 23 -39 31 -33 9 7 23 0 21 -10 -2 -8 9 -14 24 -16 41 -5 78 36
76 83 -1 20 -4 38 -8 40 -4 3 -6 -9 -4 -26z"/>
<path d="M1610 492 c0 -14 36 -43 43 -35 4 3 0 15 -10 25 -17 19 -33 24 -33
10z m31 -19 c13 -16 12 -17 -3 -4 -10 7 -18 15 -18 17 0 8 8 3 21 -13z"/>
<path d="M376 474 c-3 -8 -10 -13 -15 -10 -5 3 -14 -1 -20 -8 -21 -25 3 -25
31 -1 16 13 24 26 19 29 -5 3 -12 -1 -15 -10z"/>
<path d="M397 378 c-26 -34 -47 -72 -47 -84 0 -33 31 -64 71 -70 31 -5 40 -2
62 21 14 16 23 34 19 43 -3 10 -1 13 5 9 13 -8 55 41 47 54 -9 15 -24 0 -17
-17 3 -8 1 -14 -5 -12 -6 2 -31 -19 -55 -47 -41 -47 -46 -49 -70 -38 -38 18
-44 55 -16 95 13 18 22 39 21 46 -2 8 1 11 6 8 14 -8 48 32 36 44 -6 6 -27
-13 -57 -52z m53 38 c0 -2 -8 -10 -17 -17 -16 -13 -17 -12 -4 4 13 16 21 21
21 13z m-62 -76 c-22 -30 -35 -41 -22 -17 9 16 36 47 41 47 2 0 -6 -13 -19
-30z m112 -63 c0 -2 -12 -14 -27 -28 l-28 -24 24 28 c23 25 31 32 31 24z"/>
<path d="M1544 426 c-3 -8 -4 -25 -2 -38 3 -17 5 -13 9 15 5 38 2 47 -7 23z"/>
<path d="M1456 362 c-3 -6 3 -17 14 -25 11 -7 18 -16 15 -19 -3 -3 5 -13 17
-24 14 -12 18 -13 10 -3 -6 9 -10 18 -7 20 2 3 -6 18 -19 34 -14 18 -25 24
-30 17z"/>
<path d="M1565 356 c-18 -13 -18 -14 8 -9 21 4 35 -1 56 -21 36 -35 49 -21 14
16 -30 31 -50 35 -78 14z m75 -21 c13 -14 21 -25 18 -25 -2 0 -15 11 -28 25
-13 14 -21 25 -18 25 2 0 15 -11 28 -25z"/>
<path d="M1532 330 c0 -19 2 -27 5 -17 2 9 2 25 0 35 -3 9 -5 1 -5 -18z"/>
<path d="M1370 288 c-10 -24 -21 -56 -24 -73 -7 -35 0 -21 32 63 25 62 19 70
-8 10z"/>
<path d="M609 293 c-1 -5 -1 -12 0 -17 1 -5 -3 -12 -10 -17 -8 -5 4 -24 37
-59 27 -29 50 -46 52 -40 3 7 -14 30 -37 51 -37 33 -41 41 -31 58 6 12 18 21
28 21 21 0 74 -34 66 -42 -3 -3 -1 -9 5 -13 23 -14 9 25 -15 44 -26 20 -93 29
-95 14z m62 -110 c13 -16 12 -17 -3 -4 -17 13 -22 21 -14 21 2 0 10 -8 17 -17z"/>
<path d="M1527 276 c-6 -16 28 -52 36 -39 3 4 -3 18 -13 30 -14 17 -19 19 -23
9z m24 -23 c13 -16 12 -17 -3 -4 -17 13 -22 21 -14 21 2 0 10 -8 17 -17z"/>
<path d="M1280 268 c0 -22 17 -41 24 -29 4 6 3 11 -3 11 -6 0 -8 7 -5 15 4 8
1 15 -5 15 -6 0 -11 -6 -11 -12z"/>
<path d="M1377 243 c-3 -5 6 -8 19 -8 13 0 24 3 24 8 0 4 -9 7 -19 7 -11 0
-22 -3 -24 -7z"/>
<path d="M811 226 c-9 -11 -5 -12 28 -3 35 9 43 8 62 -9 18 -17 20 -25 14 -69
-4 -27 -8 -58 -8 -67 -1 -9 -5 -15 -8 -12 -4 2 -10 0 -14 -6 -9 -15 -51 -12
-65 5 -7 8 -16 13 -20 10 -7 -4 -3 69 5 93 2 6 0 12 -4 12 -15 0 -24 -99 -11
-115 16 -20 70 -28 101 -16 23 8 27 17 36 82 9 65 8 74 -9 91 -22 22 -90 25
-107 4z"/>
<path d="M1434 223 c2 -9 8 -19 14 -21 7 -2 9 -9 6 -14 -4 -7 -2 -8 4 -4 9 5
9 13 2 26 -14 26 -29 34 -26 13z"/>
<path d="M1305 220 c-3 -5 -1 -10 4 -10 6 0 11 5 11 10 0 6 -2 10 -4 10 -3 0
-8 -4 -11 -10z"/>
<path d="M1565 220 c-3 -5 1 -10 10 -10 9 0 13 5 10 10 -3 6 -8 10 -10 10 -2
0 -7 -4 -10 -10z"/>
<path d="M557 161 c3 -11 13 -27 22 -35 21 -19 81 -33 81 -18 0 5 -8 8 -19 5
-12 -3 -30 8 -54 32 -26 27 -34 31 -30 16z"/>
<path d="M1328 173 c6 -2 10 -9 6 -14 -3 -5 0 -9 6 -9 6 0 8 -4 5 -10 -8 -13
14 -52 25 -45 13 8 -27 85 -43 84 -9 0 -9 -2 1 -6z"/>
<path d="M1465 171 c-6 -11 13 -26 22 -17 4 3 1 6 -6 6 -7 0 -9 5 -6 10 3 6 4
10 1 10 -3 0 -7 -4 -11 -9z"/>
<path d="M673 125 c0 -8 4 -12 9 -9 5 3 6 10 3 15 -9 13 -12 11 -12 -6z"/>
<path d="M1100 120 c-10 -6 -2 -7 25 -3 49 7 58 13 19 13 -16 0 -36 -5 -44
-10z"/>
</g>
</svg>
